# xmcd
#
# Track frame offsets:
#	150
#	14289
#	25962
#	37370
#	51259
#	65371
#	79093
#	90237
#	103401
#	115215
#	128894
#	141711
#	154193
#	167580
#	181051
#	192432
#	204412
#	216769
#	230407
#	241439
#
# Disc length: 3363 seconds
#
# Revision: 1
# Processed by: cddbd v1.5.2PL0 Copyright (c) Steve Scherf et al.
# Submitted via: audiograbber 1.83.01
#
DISCID=1f0d2114
DTITLE=The Cloovers - Hits 1951 - 1955
DYEAR=1900
DGENRE=
TTITLE0=Don´t you know i love you
TTITLE1=Fool, fool, fool
TTITLE2=One mint julep
TTITLE3=Middle of the night
TTITLE4=Thing a ling
TTITLE5=wonder where my babys gone
TTITLE6=He Miss Fannie
TTITLE7=I plaed the fool
TTITLE8=Crawlin
TTITLE9=Good lovin
TTITLE10=Comin on
TTITLE11=Lovey dovey
TTITLE12=Little Mama
TTITLE13=Your cash ain´t nothing but trash
TTITLE14=I got my eys on you
TTITLE15=Blue Velvet
TTITLE16=Love Bug
TTITLE17=Nip Sip
TTITLE18=Devil or Angel
TTITLE19=Hey Doll Baby
EXTD=
EXTT0=
EXTT1=
EXTT2=
EXTT3=
EXTT4=
EXTT5=
EXTT6=
EXTT7=
EXTT8=
EXTT9=
EXTT10=
EXTT11=
EXTT12=
EXTT13=
EXTT14=
EXTT15=
EXTT16=
EXTT17=
EXTT18=
EXTT19=
PLAYORDER=
